<?xml version="1.0" encoding="utf-8"?>
<!-- Generator: Adobe Illustrator 24.2.3, SVG Export Plug-In . SVG Version: 6.00 Build 0)  -->
<svg version="1.1" id="Capa_1" xmlns="http://www.w3.org/2000/svg" xmlns:xlink="http://www.w3.org/1999/xlink" x="0px" y="0px"
	 viewBox="0 0 145 210" style="enable-background:new 0 0 145 210;" xml:space="preserve">
<style type="text/css">
	.st0{fill:#FFFFFF;}
	.st1{fill:#EC7203;}
</style>
<g id="XMLID_10462_">
	<rect x="1" y="181" class="st0" width="143" height="28"/>
	<g>
		<path d="M143,182v26H2v-26H143 M145,180H0v30h145V180L145,180z"/>
	</g>
</g>
<rect id="XMLID_10461_" x="0" y="150" class="st1" width="145" height="30"/>
<g id="XMLID_10458_">
	<rect x="1" y="121" class="st0" width="143" height="28"/>
	<g>
		<path d="M143,122v26H2v-26H143 M145,120H0v30h145V120L145,120z"/>
	</g>
</g>
<g id="XMLID_10455_">
	<rect x="1" y="61" class="st0" width="143" height="28"/>
	<g>
		<path d="M143,62v26H2V62H143 M145,60H0v30h145V60L145,60z"/>
	</g>
</g>
<rect id="XMLID_10454_" x="0" y="30" class="st1" width="145" height="30"/>
<rect id="XMLID_10450_" x="0" y="90" class="st1" width="145" height="30"/>
<g id="XMLID_10451_">
	<rect x="1" y="1" class="st0" width="143" height="28"/>
	<g>
		<path d="M143,2v26H2V2H143 M145,0H0v30h145V0L145,0z"/>
	</g>
</g>
</svg>
