<?xml version="1.0" encoding="utf-8"?>
<!-- Generator: Adobe Illustrator 24.2.3, SVG Export Plug-In . SVG Version: 6.00 Build 0)  -->
<svg version="1.1" id="Capa_1" xmlns="http://www.w3.org/2000/svg" xmlns:xlink="http://www.w3.org/1999/xlink" x="0px" y="0px"
	 viewBox="0 0 46.4 45.7" style="enable-background:new 0 0 46.4 45.7;" xml:space="preserve">
<style type="text/css">
	.st0{fill:#FFFFFF;}
	.st1{stroke:#000000;stroke-width:2;stroke-miterlimit:10;}
</style>
<g>
	<g id="XMLID_11233_">
		<path class="st0" d="M23.2,41.4C13,41.4,4.7,33.1,4.7,22.9C4.7,12.7,13,4.4,23.2,4.4s18.5,8.3,18.5,18.5
			C41.7,33.1,33.4,41.4,23.2,41.4z"/>
		<path d="M23.2,5.9c9.4,0,17,7.6,17,17s-7.6,17-17,17s-17-7.6-17-17S13.8,5.9,23.2,5.9 M23.2,2.9c-11,0-20,9-20,20c0,11,9,20,20,20
			c11,0,20-9,20-20C43.2,11.8,34.2,2.9,23.2,2.9L23.2,2.9z"/>
	</g>
	<line id="XMLID_11231_" class="st1" x1="9.6" y1="9.3" x2="36.8" y2="36.4"/>
	<line id="XMLID_11230_" class="st1" x1="36.8" y1="9.3" x2="9.6" y2="36.4"/>
</g>
</svg>
