<?xml version="1.0" encoding="utf-8"?>
<!-- Generator: Adobe Illustrator 24.2.3, SVG Export Plug-In . SVG Version: 6.00 Build 0)  -->
<svg version="1.1" id="Capa_1" xmlns="http://www.w3.org/2000/svg" xmlns:xlink="http://www.w3.org/1999/xlink" x="0px" y="0px"
	 viewBox="0 0 134.2 221.4" style="enable-background:new 0 0 134.2 221.4;" xml:space="preserve">
<g id="XMLID_381_">
	<path id="XMLID_389_" d="M82,79V50.7h6.3v22.4H103V79H82z"/>
	<path id="XMLID_387_" d="M105.2,79V50.7h6.2V79H105.2z"/>
	<path id="XMLID_384_" d="M73.6,79l-2.2-6.3H61L58.8,79h-6.1l10.9-28.3h5.5L79.8,79H73.6z M67.6,62.2c-0.6-1.7-1.1-3.4-1.4-4.4
		c-0.3,1.1-0.9,2.8-1.4,4.4L63,67.4h6.5L67.6,62.2z"/>
	<polygon id="XMLID_383_" points="28.5,79 22.8,79 22.8,50.7 28.5,50.7 36.8,67.4 44.6,50.7 50.5,50.7 50.5,79 44.5,79 44.5,62.5 
		36.5,79 28.5,62.4 	"/>
	<polygon id="XMLID_382_" points="86,145.4 86,132.7 73.5,132.7 73.5,120.1 48,120.1 48,107.4 22.8,107.4 22.8,132.7 30.4,132.7 
		30.4,120.7 31.6,120.7 31.6,132.7 39.1,132.7 39.1,120.7 40.3,120.7 40.3,132.7 48,132.7 48,145.4 60.1,145.4 60.1,133.3 
		61.3,133.3 61.3,145.4 73.5,145.4 73.5,158.1 98.8,158.1 98.8,170.7 111.3,170.7 111.3,145.4 	"/>
</g>
</svg>
