<?xml version="1.0" encoding="utf-8"?>
<!-- Generator: Adobe Illustrator 24.2.3, SVG Export Plug-In . SVG Version: 6.00 Build 0)  -->
<svg version="1.1" id="Capa_1" xmlns="http://www.w3.org/2000/svg" xmlns:xlink="http://www.w3.org/1999/xlink" x="0px" y="0px"
	 viewBox="0 0 388.4 221.4" style="enable-background:new 0 0 388.4 221.4;" xml:space="preserve">
<g id="XMLID_342_">
	<path id="XMLID_380_" d="M256.3,94.8c-1.7,10.4-3.4,20.8-5.1,31.1c-0.2,1.1,1.6,1.6,1.7,0.5c1.7-10.4,3.4-20.8,5.1-31.1
		C258.3,94.2,256.5,93.7,256.3,94.8L256.3,94.8z"/>
	<path id="XMLID_379_" d="M295.9,75.7c-3.9,0.1-11,2-14.2,15.3c-1.4,5.8-2,11.8-0.8,19c1.1,6.6,3.1,12.4,4.4,15.5
		c0.5,1.1,1.2,2.2,1.7,2.9c1.6,2,4.2,1.9,5.3,1.3c1.2-0.6,2.6-2,2.1-5.3c-0.2-1.6-0.9-3.9-1.3-5.2c-1.2-4-2.8-8.7-3-12.1
		c-0.2-4.5,1.6-5.1,2.8-5.4c2-0.4,3.7,1.8,5.3,4.5c1.9,3.3,5.2,9.1,7.8,13.6c2.4,4,6.8,8.3,14,8c7.3-0.3,12.6-3.1,15.4-11.8
		c2.1-6.5,3.5-11.4,5.7-16.4c2.6-5.7,6.1-8.8,9-7.9c2.7,0.9,3.4,3.5,3.4,7.4c0,3.5-0.4,7.3-0.7,10c-0.1,1-0.3,3.1-0.2,4.2
		c0.2,2.2,1.1,4.4,3.6,4.8c2.7,0.4,4.8-1.8,5.7-4.3c0.3-1,0.6-2.6,0.8-3.7c0.8-5.6,1-9.3,0.6-15c-0.4-6.7-1.7-12.7-4-18
		c-2.2-5-5.7-8.3-10.2-8.5c-5-0.3-10.7,3-13.7,9.4c-2.8,5.9-5,11.9-6.3,15c-1.4,3.1-3.3,5.1-6.4,5.4c-3.7,0.4-7-2.3-9.3-6.2
		c-2.1-3.4-6.1-9.8-8.3-12C303.1,78.2,300.8,75.7,295.9,75.7"/>
	<path id="XMLID_368_" d="M353.1,142.2c-0.7-0.3-1.7-0.5-3-0.5h-0.2c-0.8,0-1.9,0.1-2.9,0.3c-0.2,0-0.2,0.1-0.2,0.3v1.5
		c0,0.2,0.1,0.2,0.3,0.2c0.9-0.1,1.9-0.2,2.6-0.2h0.1c1,0,1.9,0.1,2.4,0.4c0.5,0.3,0.7,0.8,0.7,1.9v0.3c-0.8-0.2-1.7-0.3-2.5-0.3
		h-0.2c-1.4,0-2.7,0.3-3.5,1.1c-0.6,0.6-1.1,1.5-1.1,2.6v0.1c0,2.3,1.6,3.7,4.8,3.7h0.6c1.3,0,2.5-0.4,3.2-1
		c0.8-0.7,1.2-1.7,1.2-3.3V146C355.4,143.9,354.5,142.8,353.1,142.2 M352.9,149.4c0,0.9,0,1.4-0.3,1.7c-0.3,0.4-0.9,0.6-1.7,0.6
		h-0.4c-1.5,0-2.4-0.6-2.4-1.7c0-0.5,0.2-1,0.5-1.3c0.4-0.3,0.9-0.5,1.9-0.5h0.2c0.7,0,1.5,0.1,2.2,0.2L352.9,149.4L352.9,149.4z
		 M363.3,141.8H362c-1.9,0-3.4,0.7-4,2.1c-0.3,0.6-0.4,1.4-0.4,2.3v7.3c0,0.2,0.1,0.2,0.2,0.2h2c0.2,0,0.2-0.1,0.2-0.2v-6.1
		c0-0.9,0-1.5,0.1-1.9c0.1-1,0.7-1.5,2.2-1.5h1.1c0.2,0,0.2-0.1,0.2-0.3v-1.6C363.5,141.8,363.4,141.8,363.3,141.8 M315.6,153.6h2.2
		c0.2,0,0.3-0.1,0.3-0.2c1.4-2.6,3.5-7.1,3.7-11.2c0-0.2-0.1-0.2-0.3-0.2h-2c-0.2,0-0.3,0.1-0.3,0.3c-0.1,1.5-0.4,3.2-0.9,4.7
		c-0.5,1.6-1.1,3.1-1.6,4.2c-0.6-1.1-1.2-2.6-1.6-4.2c-0.5-1.5-0.8-3.3-0.9-4.8c0-0.2-0.1-0.3-0.3-0.3h-2c-0.2,0-0.3,0.1-0.3,0.3
		c0.3,4,1.5,7.1,3.7,11.1C315.3,153.5,315.4,153.6,315.6,153.6 M331.6,148.4c0.5,0.2,1,0.4,1.5,0.5c1.1,0.4,1.6,0.7,1.6,1.4
		c0,0.9-0.8,1.4-2.5,1.4h-0.1c-1,0-2.1-0.2-3.1-0.5c-0.2-0.1-0.3,0-0.3,0.2v1.5c0,0.2,0,0.3,0.2,0.4c0.9,0.3,2.2,0.5,3.3,0.5h0.1
		c3,0,4.7-1.4,4.7-3.6l0,0c0-0.8-0.3-1.6-0.8-2.1s-1.3-0.9-2.5-1.3c-0.6-0.2-1.1-0.4-1.6-0.6c-1-0.4-1.3-0.7-1.3-1.2
		c0-0.8,0.8-1.2,2.2-1.2h0.1c0.8,0,1.7,0.1,2.8,0.3c0.2,0,0.3,0,0.3-0.2v-1.5c0-0.2-0.1-0.3-0.3-0.3c-0.7-0.2-2.1-0.3-2.8-0.3h0
		c-1.6,0-2.7,0.3-3.5,1c-0.6,0.5-1,1.4-1,2.3v0.1c0,0.9,0.3,1.6,0.9,2.1C330,147.8,330.7,148.1,331.6,148.4 M343.8,153.6
		c0.2,0,0.3-0.1,0.3-0.2v-1.7c0-0.1-0.1-0.2-0.3-0.2h-0.3c-0.8,0-1.3-0.2-1.6-0.5c-0.4-0.4-0.5-1.1-0.5-1.9v-5h2.2
		c0.2,0,0.2-0.1,0.2-0.2v-1.6c0-0.2-0.1-0.2-0.2-0.2h-2.2v-2.2c0-0.2-0.1-0.2-0.2-0.2h-2c-0.2,0-0.2,0.1-0.2,0.2v9.3
		c0,1.6,0.3,2.7,1,3.4s1.7,1,3.2,1H343.8z M292.9,141.8h-0.6c-1.7,0-2.9,0.5-3.4,1.1l0,0c-0.6-0.7-1.8-1.1-3.5-1.1h-0.6
		c-2,0-3.5,0.7-4.2,2.1c-0.3,0.6-0.4,1.4-0.4,2.3v7.2c0,0.2,0.1,0.3,0.3,0.3h2c0.2,0,0.3-0.1,0.3-0.3v-6c0-0.9,0-1.5,0.1-1.9
		c0.1-1,0.9-1.5,2.3-1.5h0.2c1.4,0,2.2,0.5,2.3,1.5c0,0.4,0.1,1,0.1,1.9v6c0,0.2,0.1,0.3,0.3,0.3h2c0.2,0,0.3-0.1,0.3-0.3v-6
		c0-0.9,0-1.5,0.1-1.9c0.1-1,0.9-1.5,2.3-1.5h0.2c1.4,0,2.2,0.5,2.3,1.5c0,0.4,0.1,1,0.1,1.9v6c0,0.2,0.1,0.3,0.3,0.3h2
		c0.2,0,0.2-0.1,0.2-0.3v-7.2c0-0.9-0.1-1.7-0.4-2.3C296.5,142.4,294.9,141.8,292.9,141.8 M309.8,151c0.2-0.8,0.4-1.7,0.4-3.2
		s-0.1-2.4-0.4-3.2c-0.6-2-2.2-2.8-4.8-2.8h-0.3c-2.6,0-4.2,0.8-4.8,2.8c-0.2,0.8-0.4,1.7-0.4,3.2s0.1,2.4,0.4,3.2
		c0.6,2,2.2,2.8,4.8,2.8h0.3C307.6,153.8,309.2,153,309.8,151 M307.6,149.5c-0.2,1.9-1.1,2.2-2.7,2.2h-0.1c-1.5,0-2.5-0.3-2.7-2.2
		c-0.1-0.6-0.1-1-0.1-1.7s0.1-1.1,0.1-1.7c0.2-1.9,1.1-2.2,2.7-2.2h0.1c1.5,0,2.5,0.3,2.7,2.2c0.1,0.6,0.1,1,0.1,1.7
		C307.7,148.4,307.6,148.9,307.6,149.5 M326,142h-2c-0.2,0-0.2,0.1-0.2,0.2v11.2c0,0.2,0.1,0.2,0.2,0.2h2c0.2,0,0.2-0.1,0.2-0.2
		v-11.2C326.3,142.1,326.2,142,326,142"/>
	<path id="XMLID_343_" d="M199.6,150.5l-9.9-14.2h-1.6v18.3h2.1v-13.9l9.8,13.9h1.8v-18.3h-2.1v14.2H199.6z M175,152.9
		c-3.7,0-4.8-2.9-4.8-7.4s1-7.5,4.8-7.5c3.7,0,4.8,3,4.8,7.5C179.7,149.9,178.7,152.9,175,152.9 M175,135.9c-5.4,0-7.2,4.2-7.2,9.5
		s1.8,9.5,7.2,9.5s7.2-4.1,7.2-9.5C182.2,140.1,180.4,135.9,175,135.9 M172.8,134.3l5.1-3.7l-1.2-1.7l-4.7,4.2L172.8,134.3z
		 M159.5,154.6h2.4v-18.3h-2.4V154.6z M150.8,153c-2.1,0-3.6-0.5-4.6-1.5c-1.2-1.2-1.7-3.2-1.7-6c0-2.9,0.5-4.8,1.6-6.1
		c0.9-1,2.2-1.5,4.1-1.5c1.1,0,2.4,0.2,3.6,0.5l0.3-1.8c-1.2-0.4-2.7-0.7-4.2-0.7c-2.2,0-4.2,0.7-5.5,2c-1.6,1.6-2.4,4.2-2.4,7.6
		c0,6.3,2.6,9.4,8.1,9.4c1.3,0,2.9-0.2,4-0.5l-0.2-1.8C152.9,152.8,151.5,153,150.8,153 M128.1,147.8l2.7-9l0,0l2.9,9H128.1z
		 M129.5,136.3l-5.7,18.3h2.3l1.5-4.9h6.9l1.6,4.9h2.5l-6.3-18.3H129.5z M115.8,151.3c-0.9,0.9-2.2,1.3-4.2,1.3h-2.7v-14.5h2.1
		c2.7,0,4.2,0.5,5.2,1.7c0.9,1.1,1.3,2.9,1.3,5.4C117.6,148.2,117.1,150.2,115.8,151.3 M111.2,136.3h-4.6v18.3h5.1
		c2.8,0,4.9-0.6,6.2-2c1.5-1.5,2.2-3.9,2.2-7.3c0-3.2-0.6-5.3-1.9-6.8C116.7,137,114.5,136.3,111.2,136.3 M98,150.5l-9.9-14.2h-1.6
		v18.3h2.1v-13.9l9.8,13.9h1.7v-18.3H98V150.5z M77.9,147.9c0,1.9-0.4,3.1-1.2,4c-0.7,0.7-1.8,1.1-3.1,1.1c-1.5,0-2.5-0.4-3.3-1.1
		c-0.8-0.8-1.1-1.9-1.1-4v-11.6h-2.4V148c0,2.6,0.6,4.3,1.9,5.4c1.1,1,2.7,1.5,4.9,1.5c2.1,0,3.7-0.6,4.7-1.6
		c1.2-1.1,1.8-2.9,1.8-5.3v-11.7H78v11.6H77.9z M51.8,154.6h2.3v-8.3h6.2v-1.9h-6.2v-6.2h7.6l0.2-1.9H51.8V154.6z M107.1,80.6
		c0.8,0,1.1,0.5,1.1,1.2c0,3.1-3.8,7.1-8.8,10.1C100.6,87,104.1,80.6,107.1,80.6 M92.7,96.9c0,3.2,1.7,6,6,5.8
		c4.7-0.1,8.9-2.8,12.6-6.7c-0.9,2.5-1.7,4.6-2.2,5.8c-1.4,3.4-2.4,6.2-4.5,7.8l0.2,0.4c6.1,0.4,8.4-4,11-11.1
		c2.5-7.1,4.7-13.3,6.3-17.5c2.7,0,6.5,0.1,8.6-0.4c-5.6,2.5-10.3,11.4-9.7,17.3c0.2,2.6,1.8,4.4,5.1,4.4c6.4,0,11.8-7.6,13.8-12.6
		c1.2-2.9,1.9-5.3,2.1-7.8c1.5-0.3,3-0.5,3.7-0.6c1.4-0.2,1.1,1.4,0.7,2.5c-2.6,7.4-7.1,18-7.2,18.2h5c2.2-4.5,3.5-7.4,5.2-10.5
		c2.1-3.6,6.7-9.6,8.6-9.6c0.6,0,0.8,0.4,0.7,1.1c-0.3,2.5-6.3,11.9-6.2,16.5c0.1,3,1.6,4.9,4.4,5.6l0.6-0.3
		c-0.3-0.7-0.4-1.5-0.4-2.5c-0.1-3.1,2.5-8.5,3.4-10.6c1.5-3.3,4.3-8.1,4.1-10.8c-0.1-1.3-1.1-2.5-3.3-2.5c-4.1,0-8.1,4-11.5,9.3
		h-0.1c1.4-3.1,2.4-6,2.4-7.4c0-1.3-0.8-1.8-2.3-1.8c-1.1,0-2.5,0.4-4,0.8c-2,0.5-4.1,1.1-6.4,1.6c-1.4,0.2-1.9,0.5-1.9,1
		c0.3,8.1-5.2,17.7-8.9,17.8c-1.6,0-1.9-1.2-1.9-2.8c0-5.6,4.6-15.1,9.1-16.6c0.4-0.1,0.8-0.2,1-0.3l0.6-1.5c-1,0.2-3.2,0.2-4.4,0.3
		h-9.9c2.6-6.3,6.3-10.3,11.6-10.5c3.3-0.1,5.6,1.1,5.8,3.1c0.1,1.6-0.3,3-1.6,4.3l0.4,0.4c2.9-1.4,4.9-3.8,5-5.4c0-2.5-3-4.1-7.8-4
		c-6.1,0-13.6,1.4-18.8,12.4c-1.6,0.2-3,0.8-4.2,2.1l0.2,0.5c0.8-0.3,1.9-0.4,3-0.4c-0.7,1.8-2.2,5.7-3.6,9.7
		c-4.4,5.9-8.8,8.7-12.1,8.7c-1.8,0.1-2.5-0.9-2.5-2.6c0-1.1,0.2-2.6,0.5-3.4c3.5-1.8,7-3.7,10.1-7c1.7-1.9,2.9-3.8,3-5.8
		c0-1.8-1.1-2.8-3.4-2.8c-3.3,0-7.3,2.2-9.9,5C95.4,86.9,92.8,92.2,92.7,96.9 M205.3,81.4c1.5-0.7,2.7-0.7,3.7-0.5
		c-0.4,0.8-2.1,4.4-3.5,7.6c-2.2,5-5.4,10.1-8.4,10.8c-1,0.3-1.6-0.1-1.6-1.2C195.6,93.6,200.4,83.7,205.3,81.4 M162.7,99.3
		c0,2.2,1.4,3.6,4.1,3.5c2.8-0.1,5.6-1.7,7.9-4c0.4,2.4,2.1,4.1,5.6,4c3.6-0.1,7.1-2.4,9.5-5.1v0.8c0,2.5,1.3,4.3,4.1,4.3
		c3,0,6.5-2.3,9.2-6.2l0.1,0.1c-0.2,0.9-0.5,2.5-0.6,3.6c-0.1,3,1.7,4.7,4.1,5.1l0.6-0.2c-0.9-2.1,0.4-7.5,0.9-9.3
		c1.8-5.8,4.7-12.5,6.3-16c-0.7-0.6-2.5-1.1-4.4-1.2c-6.3-0.2-12.5,2.4-17.1,10.6c-0.8,1.4-1.6,3.1-2.3,4.8
		c-0.7,0.9-1.3,1.7-1.6,1.9c-1.7,1.6-4,3.7-6.4,3.7c-1.4,0-2.1-0.9-2.1-2.7c0-6.5,5.8-16.5,9.7-16.5c1.1,0,1.5,0.5,1.5,1.4
		c0,1.1-0.7,2.6-1.8,3.6l0.5,0.4c2.6-1,5-2.8,5.1-4.8c0-2.2-2.5-2.6-4.8-2.6c-3,0-6.8,1.5-9.9,4.9c-3.8,4.2-5.8,9.2-6.1,12.8
		c-1.7,2-3.7,3.4-5,3.5c-0.7,0-1.3-0.4-1.3-1.1s0.4-2.1,1.1-3.9c1.7-4.2,4.1-9.5,7.1-15.7c0,0-4.5,0.8-5.2,1s-1.2,0.6-1.5,1.3
		c-2,4.2-4.3,9-5.7,12.5C163.3,95.9,162.7,98,162.7,99.3 M80.1,80.6c0.7,0,1,0.5,1,1.2c0,3.1-3.8,7.1-8.7,10.1
		C73.6,87,77.1,80.6,80.1,80.6 M84.6,91.3c-3,4.4-7.3,8.5-10.9,8.5c-1.6,0.1-2.2-0.8-2.2-2.6c0-1.1,0.3-2.6,0.5-3.4
		c3.5-1.8,7-3.7,10.1-7c1.8-1.9,2.9-3.8,3-5.8c0-1.8-1.1-2.8-3.4-2.8c-3.3,0-7.3,2.2-9.9,5c-3.4,3.7-6,9-6.1,13.7
		c0,3.3,1.5,6,5.8,5.8c4.5-0.1,9-3.7,11.3-6.2c-0.3,1.1-0.5,2.1-0.5,3c0,3,1.4,5,4.3,5.9l0.6-0.3c-0.3-0.8-0.3-1.6-0.3-2.6
		c0.2-2.9,1.3-6.1,3-10.4c3.2-8,7.8-17.2,9.8-22.7l-4.8,0.9c-0.8,0.2-1.2,0.7-1.5,1.3c-2.3,5-4.7,10.3-7.7,17.3
		C85.3,89.8,85,90.5,84.6,91.3 M45.2,83.5l0.3-0.3c-0.5-0.8-0.6-2.1-0.6-2.9c0.2-6.6,7.1-10.4,18-10.4h6c-3.5,2-6.4,4.8-8.7,9.9
		c-1,2.2-5.6,14-7.4,19.4c-2.3,6.3-3.8,9.2-5.7,10.3l0.3,0.6c5.2,0.3,8.3-2.4,10.3-7.3c1.9-4.7,4.4-12.1,5.7-15.4
		c4-10.6,5.7-15.1,8.9-17.3c4.4,0,8.7,0,8.7,0c4.8-0.1,6.8-1.3,8.3-3.2L89,66.5c-1.2,0.7-3.8,0.8-6,0.8H61.4c-12.1,0-19.6,4-20.8,10
		C40.1,80,41.7,83.1,45.2,83.5 M176.7,75c1.4,0,2.8-1.3,3.1-2.8c0.3-1.6-0.6-2.8-2-2.8s-2.8,1.3-3.1,2.9
		C174.4,73.8,175.3,75,176.7,75 M228.5,121.1c0-0.8-51.3-1.4-101.8-1.4s-101.8,0.6-101.8,1.4c0,0.7,51.3,1.4,101.8,1.4
		S228.5,121.9,228.5,121.1"/>
</g>
</svg>
