<?xml version="1.0" encoding="utf-8"?>
<!-- Generator: Adobe Illustrator 24.2.3, SVG Export Plug-In . SVG Version: 6.00 Build 0)  -->
<svg version="1.1" id="Capa_1" xmlns="http://www.w3.org/2000/svg" xmlns:xlink="http://www.w3.org/1999/xlink" x="0px" y="0px"
	 viewBox="0 0 46.4 45.7" style="enable-background:new 0 0 46.4 45.7;" xml:space="preserve">
<style type="text/css">
	.st0{fill:#FFFFFF;}
	.st1{stroke:#000000;stroke-width:2;stroke-miterlimit:10;}
</style>
<g id="XMLID_10789_">
	<path class="st0" d="M22.8,41.9c-10.3,0-18.7-8.4-18.7-18.8S12.5,4.4,22.8,4.4c10.3,0,18.8,8.4,18.8,18.8S33.2,41.9,22.8,41.9z"/>
	<path d="M22.9,5.4c9.8,0,17.8,8,17.8,17.7s-8,17.7-17.8,17.7s-17.8-8-17.8-17.7S13.1,5.4,22.9,5.4 M22.9,3.4
		c-10.9,0-19.8,8.8-19.8,19.7s8.8,19.7,19.8,19.7c10.9,0,19.8-8.8,19.8-19.7S33.8,3.4,22.9,3.4L22.9,3.4z"/>
</g>
<line id="XMLID_10783_" class="st1" x1="36.3" y1="36.6" x2="9.4" y2="9.7"/>
<line id="XMLID_10781_" class="st1" x1="9.4" y1="36.6" x2="36.3" y2="9.7"/>
<line id="XMLID_10777_" class="st1" x1="22.9" y1="42.3" x2="22.9" y2="5.1"/>
<line id="XMLID_10766_" class="st1" x1="4.8" y1="23.2" x2="42" y2="23.2"/>
</svg>
