<?xml version="1.0" encoding="utf-8"?>
<!-- Generator: Adobe Illustrator 24.2.3, SVG Export Plug-In . SVG Version: 6.00 Build 0)  -->
<svg version="1.1" id="Capa_1" xmlns="http://www.w3.org/2000/svg" xmlns:xlink="http://www.w3.org/1999/xlink" x="0px" y="0px"
	 viewBox="0 0 39.1 38.5" style="enable-background:new 0 0 39.1 38.5;" xml:space="preserve">
<path d="M19.6,1.7C9.9,1.7,2.1,9.6,2.1,19.2s7.8,17.5,17.5,17.5s17.5-7.8,17.5-17.5S29.2,1.7,19.6,1.7z M20.6,3.8
	c3.5,0.2,6.7,1.6,9.2,3.8l-9.2,9.2V3.8z M17.6,18.7H4.1C4.2,15,5.6,11.6,7.9,9L17.6,18.7z M9.3,7.6C11.8,5.4,15,4,18.6,3.8v13
	L9.3,7.6z M16.6,20.7l-8.7,8.7c-2.1-2.4-3.5-5.4-3.8-8.7H16.6z M18.6,21.6v13c-3.5-0.2-6.7-1.6-9.2-3.8L18.6,21.6z M20.6,21.6
	l9.2,9.2c-2.5,2.2-5.7,3.6-9.2,3.8V21.6z M22.5,20.7H35c-0.3,3.3-1.7,6.3-3.8,8.7L22.5,20.7z M21.5,18.7L31.2,9
	c2.3,2.6,3.7,6,3.8,9.7H21.5z"/>
</svg>
