<?xml version="1.0" encoding="utf-8"?>
<!-- Generator: Adobe Illustrator 24.2.3, SVG Export Plug-In . SVG Version: 6.00 Build 0)  -->
<svg version="1.1" id="Capa_1" xmlns="http://www.w3.org/2000/svg" xmlns:xlink="http://www.w3.org/1999/xlink" x="0px" y="0px"
	 viewBox="0 0 46.4 45.7" style="enable-background:new 0 0 46.4 45.7;" xml:space="preserve">
<path d="M23.2,2.9c-11,0-20,9-20,20s9,20,20,20c11,0,20-9,20-20S34.2,2.9,23.2,2.9z M24.6,22.9l11.3-11.3c2.7,3,4.3,6.9,4.3,11.3
	s-1.6,8.3-4.3,11.3L24.6,22.9z M34.5,10.2L23.2,21.4L11.9,10.2c3-2.7,6.9-4.3,11.3-4.3S31.5,7.5,34.5,10.2z M10.5,11.6l11.3,11.3
	L10.5,34.1c-2.7-3-4.3-6.9-4.3-11.3S7.8,14.6,10.5,11.6z M11.9,35.5l11.3-11.3l11.3,11.3c-3,2.7-6.9,4.3-11.3,4.3
	S14.9,38.2,11.9,35.5z"/>
</svg>
