<?xml version="1.0" encoding="utf-8"?>
<!-- Generator: Adobe Illustrator 24.2.3, SVG Export Plug-In . SVG Version: 6.00 Build 0)  -->
<svg version="1.1" id="Capa_1" xmlns="http://www.w3.org/2000/svg" xmlns:xlink="http://www.w3.org/1999/xlink" x="0px" y="0px"
	 viewBox="0 0 145 210" style="enable-background:new 0 0 145 210;" xml:space="preserve">
<style type="text/css">
	.st0{fill:#FFFFFF;}
</style>
<g id="XMLID_4584_">
	<rect y="126" width="145" height="42"/>
</g>
<g id="XMLID_4583_">
	<rect x="1" y="85" class="st0" width="143" height="40"/>
	<path d="M143,86v38H2V86H143 M145,84H0v42h145V84L145,84z"/>
</g>
<g id="XMLID_4580_">
	<rect y="42" width="145" height="42"/>
</g>
<g id="XMLID_4579_">
	<rect x="1" y="169" class="st0" width="143" height="40"/>
	<path d="M143,170v38H2v-38H143 M145,168H0v42h145V168L145,168z"/>
</g>
<g id="XMLID_24_">
	<rect x="1" y="1" class="st0" width="143" height="40"/>
	<path d="M143,2v38H2V2H143 M145,0H0v42h145V0L145,0z"/>
</g>
</svg>
