<?xml version="1.0" encoding="utf-8"?>
<!-- Generator: Adobe Illustrator 24.2.3, SVG Export Plug-In . SVG Version: 6.00 Build 0)  -->
<svg version="1.1" id="Capa_1" xmlns="http://www.w3.org/2000/svg" xmlns:xlink="http://www.w3.org/1999/xlink" x="0px" y="0px"
	 viewBox="0 0 581.2 221.4" style="enable-background:new 0 0 581.2 221.4;" xml:space="preserve">
<g id="XMLID_341_">
	<g id="XMLID_381_">
		<path id="XMLID_389_" d="M528.9,79V50.7h6.3v22.4H550V79H528.9z"/>
		<path id="XMLID_387_" d="M552.2,79V50.7h6.2V79H552.2z"/>
		<path id="XMLID_384_" d="M520.6,79l-2.2-6.3h-10.4l-2.2,6.3h-6.1l10.9-28.3h5.5L526.8,79H520.6z M514.6,62.2
			c-0.6-1.7-1.1-3.4-1.4-4.4c-0.3,1.1-0.9,2.8-1.4,4.4l-1.8,5.2h6.5L514.6,62.2z"/>
		<polygon id="XMLID_383_" points="475.5,79 469.7,79 469.7,50.7 475.5,50.7 483.7,67.4 491.6,50.7 497.5,50.7 497.5,79 491.5,79 
			491.5,62.5 483.5,79 475.5,62.4 		"/>
		<polygon id="XMLID_382_" points="533,145.4 533,132.7 520.4,132.7 520.4,120.1 495,120.1 495,107.4 469.7,107.4 469.7,132.7 
			477.4,132.7 477.4,120.7 478.6,120.7 478.6,132.7 486.1,132.7 486.1,120.7 487.3,120.7 487.3,132.7 495,132.7 495,145.4 
			507.1,145.4 507.1,133.3 508.3,133.3 508.3,145.4 520.4,145.4 520.4,158.1 545.7,158.1 545.7,170.7 558.3,170.7 558.3,145.4 		"/>
	</g>
	<g id="XMLID_342_">
		<path id="XMLID_380_" d="M254.2,94.9c-1.7,10.4-3.4,20.8-5.1,31.1c-0.2,1.1,1.6,1.6,1.7,0.5c1.7-10.4,3.4-20.8,5.1-31.1
			C256.2,94.3,254.4,93.8,254.2,94.9L254.2,94.9z"/>
		<path id="XMLID_379_" d="M293.8,75.8c-3.9,0.1-11,2-14.2,15.3c-1.4,5.8-2,11.8-0.8,19c1.1,6.6,3.1,12.4,4.4,15.5
			c0.5,1.1,1.2,2.2,1.7,2.9c1.6,2,4.2,1.9,5.3,1.3c1.2-0.6,2.6-2,2.1-5.3c-0.2-1.6-0.9-3.9-1.3-5.2c-1.2-4-2.8-8.7-3-12.1
			c-0.2-4.5,1.6-5.1,2.8-5.4c2-0.4,3.7,1.8,5.3,4.5c1.9,3.3,5.2,9.1,7.8,13.6c2.4,4,6.8,8.3,14,8c7.3-0.3,12.6-3.1,15.4-11.8
			c2.1-6.5,3.5-11.4,5.7-16.4c2.6-5.7,6.1-8.8,9-7.9c2.7,0.9,3.4,3.5,3.4,7.4c0,3.5-0.4,7.3-0.7,10c-0.1,1-0.3,3.1-0.2,4.2
			c0.2,2.2,1.1,4.4,3.6,4.8c2.7,0.4,4.8-1.8,5.7-4.3c0.3-1,0.6-2.6,0.8-3.7c0.8-5.6,1-9.3,0.6-15c-0.4-6.7-1.7-12.7-4-18
			c-2.2-5-5.7-8.3-10.2-8.5c-5-0.3-10.7,3-13.7,9.4c-2.8,5.9-5,11.9-6.3,15c-1.4,3.1-3.3,5.1-6.4,5.4c-3.7,0.4-7-2.3-9.3-6.2
			c-2.1-3.4-6.1-9.8-8.3-12C301,78.3,298.7,75.8,293.8,75.8"/>
		<path id="XMLID_368_" d="M351,142.3c-0.7-0.3-1.7-0.5-3-0.5h-0.2c-0.8,0-1.9,0.1-2.9,0.3c-0.2,0-0.2,0.1-0.2,0.3v1.5
			c0,0.2,0.1,0.2,0.3,0.2c0.9-0.1,1.9-0.2,2.6-0.2h0.1c1,0,1.9,0.1,2.4,0.4c0.5,0.3,0.7,0.8,0.7,1.9v0.3c-0.8-0.2-1.7-0.3-2.5-0.3
			h-0.2c-1.4,0-2.7,0.3-3.5,1.1c-0.6,0.6-1.1,1.5-1.1,2.6v0.1c0,2.3,1.6,3.7,4.8,3.7h0.6c1.3,0,2.5-0.4,3.2-1
			c0.8-0.7,1.2-1.7,1.2-3.3v-3.3C353.3,144,352.4,142.9,351,142.3 M350.8,149.5c0,0.9,0,1.4-0.3,1.7c-0.3,0.4-0.9,0.6-1.7,0.6h-0.4
			c-1.5,0-2.4-0.6-2.4-1.7c0-0.5,0.2-1,0.5-1.3c0.4-0.3,0.9-0.5,1.9-0.5h0.2c0.7,0,1.5,0.1,2.2,0.2V149.5z M361.2,141.9h-1.3
			c-1.9,0-3.4,0.7-4,2.1c-0.3,0.6-0.4,1.4-0.4,2.3v7.3c0,0.2,0.1,0.2,0.2,0.2h2c0.2,0,0.2-0.1,0.2-0.2v-6.1c0-0.9,0-1.5,0.1-1.9
			c0.1-1,0.7-1.5,2.2-1.5h1.1c0.2,0,0.2-0.1,0.2-0.3v-1.6C361.4,141.9,361.3,141.9,361.2,141.9 M313.5,153.7h2.2
			c0.2,0,0.3-0.1,0.3-0.2c1.4-2.6,3.5-7.1,3.7-11.2c0-0.2-0.1-0.2-0.3-0.2h-2c-0.2,0-0.3,0.1-0.3,0.3c-0.1,1.5-0.4,3.2-0.9,4.7
			c-0.5,1.6-1.1,3.1-1.6,4.2c-0.6-1.1-1.2-2.6-1.6-4.2c-0.5-1.5-0.8-3.3-0.9-4.8c0-0.2-0.1-0.3-0.3-0.3h-2c-0.2,0-0.3,0.1-0.3,0.3
			c0.3,4,1.5,7.1,3.7,11.1C313.2,153.6,313.3,153.7,313.5,153.7 M329.5,148.5c0.5,0.2,1,0.4,1.5,0.5c1.1,0.4,1.6,0.7,1.6,1.4
			c0,0.9-0.8,1.4-2.5,1.4h-0.1c-1,0-2.1-0.2-3.1-0.5c-0.2-0.1-0.3,0-0.3,0.2v1.5c0,0.2,0,0.3,0.2,0.4c0.9,0.3,2.2,0.5,3.3,0.5h0.1
			c3,0,4.7-1.4,4.7-3.6v0c0-0.8-0.3-1.6-0.8-2.1c-0.5-0.5-1.3-0.9-2.5-1.3c-0.6-0.2-1.1-0.4-1.6-0.6c-1-0.4-1.3-0.7-1.3-1.2
			c0-0.8,0.8-1.2,2.2-1.2h0.1c0.8,0,1.7,0.1,2.8,0.3c0.2,0,0.3,0,0.3-0.2v-1.5c0-0.2-0.1-0.3-0.3-0.3c-0.7-0.2-2.1-0.3-2.8-0.3H331
			c-1.6,0-2.7,0.3-3.5,1c-0.6,0.5-1,1.4-1,2.3l0,0.1c0,0.9,0.3,1.6,0.9,2.1C327.9,147.9,328.6,148.2,329.5,148.5 M341.7,153.7
			c0.2,0,0.3-0.1,0.3-0.2v-1.7c0-0.1-0.1-0.2-0.3-0.2h-0.3c-0.8,0-1.3-0.2-1.6-0.5c-0.4-0.4-0.5-1.1-0.5-1.9v-5h2.2
			c0.2,0,0.2-0.1,0.2-0.2v-1.6c0-0.2-0.1-0.2-0.2-0.2h-2.2V140c0-0.2-0.1-0.2-0.2-0.2h-2c-0.2,0-0.2,0.1-0.2,0.2v9.3
			c0,1.6,0.3,2.7,1,3.4c0.7,0.7,1.7,1,3.2,1H341.7z M290.8,141.9h-0.6c-1.7,0-2.9,0.5-3.4,1.1h0c-0.6-0.7-1.8-1.1-3.5-1.1h-0.6
			c-2,0-3.5,0.7-4.2,2.1c-0.3,0.6-0.4,1.4-0.4,2.3v7.2c0,0.2,0.1,0.3,0.3,0.3h2c0.2,0,0.3-0.1,0.3-0.3l0-6c0-0.9,0-1.5,0.1-1.9
			c0.1-1,0.9-1.5,2.3-1.5h0.2c1.4,0,2.2,0.5,2.3,1.5c0,0.4,0.1,1,0.1,1.9v6c0,0.2,0.1,0.3,0.3,0.3h2c0.2,0,0.3-0.1,0.3-0.3v-6
			c0-0.9,0-1.5,0.1-1.9c0.1-1,0.9-1.5,2.3-1.5h0.2c1.4,0,2.2,0.5,2.3,1.5c0,0.4,0.1,1,0.1,1.9v6c0,0.2,0.1,0.3,0.3,0.3h2
			c0.2,0,0.2-0.1,0.2-0.3v-7.2c0-0.9-0.1-1.7-0.4-2.3C294.4,142.5,292.8,141.9,290.8,141.9 M307.7,151.1c0.2-0.8,0.4-1.7,0.4-3.2
			c0-1.5-0.1-2.4-0.4-3.2c-0.6-2-2.2-2.8-4.8-2.8h-0.3c-2.6,0-4.2,0.8-4.8,2.8c-0.2,0.8-0.4,1.7-0.4,3.2c0,1.5,0.1,2.4,0.4,3.2
			c0.6,2,2.2,2.8,4.8,2.8h0.3C305.5,153.9,307.1,153.1,307.7,151.1 M305.5,149.6c-0.2,1.9-1.1,2.2-2.7,2.2h-0.1
			c-1.5,0-2.5-0.3-2.7-2.2c-0.1-0.6-0.1-1-0.1-1.7c0-0.7,0.1-1.1,0.1-1.7c0.2-1.9,1.1-2.2,2.7-2.2h0.1c1.5,0,2.5,0.3,2.7,2.2
			c0.1,0.6,0.1,1,0.1,1.7C305.6,148.5,305.5,149,305.5,149.6 M323.9,142.1h-2c-0.2,0-0.2,0.1-0.2,0.2v11.2c0,0.2,0.1,0.2,0.2,0.2h2
			c0.2,0,0.2-0.1,0.2-0.2l0-11.2C324.2,142.2,324.1,142.1,323.9,142.1"/>
		<path id="XMLID_343_" d="M197.5,150.6l-9.9-14.2h-1.6v18.3h2.1v-13.9l9.8,13.9h1.8v-18.3h-2.1V150.6z M172.9,153
			c-3.7,0-4.8-2.9-4.8-7.4c0-4.5,1-7.5,4.8-7.5c3.7,0,4.8,3,4.8,7.5C177.6,150,176.6,153,172.9,153 M172.9,136
			c-5.4,0-7.2,4.2-7.2,9.5c0,5.3,1.8,9.5,7.2,9.5c5.4,0,7.2-4.1,7.2-9.5C180.1,140.2,178.3,136,172.9,136 M170.7,134.4l5.1-3.7
			l-1.2-1.7l-4.7,4.2L170.7,134.4z M157.4,154.7h2.4v-18.3h-2.4V154.7z M148.7,153.1c-2.1,0-3.6-0.5-4.6-1.5c-1.2-1.2-1.7-3.2-1.7-6
			c0-2.9,0.5-4.8,1.6-6.1c0.9-1,2.2-1.5,4.1-1.5c1.1,0,2.4,0.2,3.6,0.5l0.3-1.8c-1.2-0.4-2.7-0.7-4.2-0.7c-2.2,0-4.2,0.7-5.5,2
			c-1.6,1.6-2.4,4.2-2.4,7.6c0,6.3,2.6,9.4,8.1,9.4c1.3,0,2.9-0.2,4-0.5l-0.2-1.8C150.8,152.9,149.4,153.1,148.7,153.1 M126,147.9
			l2.7-9h0l2.9,9H126z M127.4,136.4l-5.7,18.3h2.3l1.5-4.9h6.9l1.6,4.9h2.5l-6.3-18.3H127.4z M113.7,151.4c-0.9,0.9-2.2,1.3-4.2,1.3
			h-2.7v-14.5h2.1c2.7,0,4.2,0.5,5.2,1.7c0.9,1.1,1.3,2.9,1.3,5.4C115.5,148.3,115,150.3,113.7,151.4 M109.1,136.4h-4.6v18.3h5.1
			c2.8,0,4.9-0.6,6.2-2c1.5-1.5,2.2-3.9,2.2-7.3c0-3.2-0.6-5.3-1.9-6.8C114.6,137.1,112.4,136.4,109.1,136.4 M95.9,150.6L86,136.4
			h-1.6v18.3h2.1v-13.9l9.8,13.9H98v-18.3h-2.1V150.6z M75.8,148c0,1.9-0.4,3.1-1.2,4c-0.7,0.7-1.8,1.1-3.1,1.1
			c-1.5,0-2.5-0.4-3.3-1.1c-0.8-0.8-1.1-1.9-1.1-4v-11.6h-2.4v11.7c0,2.6,0.6,4.3,1.9,5.4c1.1,1,2.7,1.5,4.9,1.5
			c2.1,0,3.7-0.6,4.7-1.6c1.2-1.1,1.8-2.9,1.8-5.3v-11.7h-2.1V148z M49.7,154.7H52v-8.3h6.2v-1.9H52v-6.2h7.6l0.2-1.9H49.7V154.7z
			 M105,80.7c0.8,0,1.1,0.5,1.1,1.2c0,3.1-3.8,7.1-8.8,10.1C98.5,87.1,102,80.7,105,80.7 M90.6,97c0,3.2,1.7,6,6,5.8
			c4.7-0.1,8.9-2.8,12.6-6.7c-0.9,2.5-1.7,4.6-2.2,5.8c-1.4,3.4-2.4,6.2-4.5,7.8l0.2,0.4c6.1,0.4,8.4-4,11-11.1
			c2.5-7.1,4.7-13.3,6.3-17.5c2.7,0,6.5,0.1,8.6-0.4c-5.6,2.5-10.3,11.4-9.7,17.3c0.2,2.6,1.8,4.4,5.1,4.4c6.4,0,11.8-7.6,13.8-12.6
			c1.2-2.9,1.9-5.3,2.1-7.8c1.5-0.3,3-0.5,3.7-0.6c1.4-0.2,1.1,1.4,0.7,2.5c-2.6,7.4-7.1,18-7.2,18.2h5c2.2-4.5,3.5-7.4,5.2-10.5
			c2.1-3.6,6.7-9.6,8.6-9.6c0.6,0,0.8,0.4,0.7,1.1c-0.3,2.5-6.3,11.9-6.2,16.5c0.1,3,1.6,4.9,4.4,5.6l0.6-0.3
			c-0.3-0.7-0.4-1.5-0.4-2.5c-0.1-3.1,2.5-8.5,3.4-10.6c1.5-3.3,4.3-8.1,4.1-10.8c-0.1-1.3-1.1-2.5-3.3-2.5c-4.1,0-8.1,4-11.5,9.3
			l-0.1,0c1.4-3.1,2.4-6,2.4-7.4c0-1.3-0.8-1.8-2.3-1.8c-1.1,0-2.5,0.4-4,0.8c-2,0.5-4.1,1.1-6.4,1.6c-1.4,0.2-1.9,0.5-1.9,1
			c0.3,8.1-5.2,17.7-8.9,17.8c-1.6,0-1.9-1.2-1.9-2.8c0-5.6,4.6-15.1,9.1-16.6c0.4-0.1,0.8-0.2,1-0.3l0.6-1.5
			c-1,0.2-3.2,0.2-4.4,0.3H121c2.6-6.3,6.3-10.3,11.6-10.5c3.3-0.1,5.6,1.1,5.8,3.1c0.1,1.6-0.3,3-1.6,4.3l0.4,0.4
			c2.9-1.4,4.9-3.8,5-5.4c0-2.5-3-4.1-7.8-4c-6.1,0-13.6,1.4-18.8,12.4c-1.6,0.2-3,0.8-4.2,2.1l0.2,0.5c0.8-0.3,1.9-0.4,3-0.4
			c-0.7,1.8-2.2,5.7-3.6,9.7c-4.4,5.9-8.8,8.7-12.1,8.7c-1.8,0.1-2.5-0.9-2.5-2.6c0-1.1,0.2-2.6,0.5-3.4c3.5-1.8,7-3.7,10.1-7
			c1.7-1.9,2.9-3.8,3-5.8c0-1.8-1.1-2.8-3.4-2.8c-3.3,0-7.3,2.2-9.9,5C93.3,87,90.7,92.3,90.6,97 M203.2,81.5
			c1.5-0.7,2.7-0.7,3.7-0.5c-0.4,0.8-2.1,4.4-3.5,7.6c-2.2,5-5.4,10.1-8.4,10.8c-1,0.3-1.6-0.1-1.6-1.2
			C193.5,93.7,198.3,83.8,203.2,81.5 M160.6,99.4c0,2.2,1.4,3.6,4.1,3.5c2.8-0.1,5.6-1.7,7.9-4c0.4,2.4,2.1,4.1,5.6,4
			c3.6-0.1,7.1-2.4,9.5-5.1v0.8c0,2.5,1.3,4.3,4.1,4.3c3,0,6.5-2.3,9.2-6.2l0.1,0.1c-0.2,0.9-0.5,2.5-0.6,3.6
			c-0.1,3,1.7,4.7,4.1,5.1l0.6-0.2c-0.9-2.1,0.4-7.5,0.9-9.3c1.8-5.8,4.7-12.5,6.3-16c-0.7-0.6-2.5-1.1-4.4-1.2
			c-6.3-0.2-12.5,2.4-17.1,10.6c-0.8,1.4-1.6,3.1-2.3,4.8c-0.7,0.9-1.3,1.7-1.6,1.9c-1.7,1.6-4,3.7-6.4,3.7c-1.4,0-2.1-0.9-2.1-2.7
			c0-6.5,5.8-16.5,9.7-16.5c1.1,0,1.5,0.5,1.5,1.4c0,1.1-0.7,2.6-1.8,3.6l0.5,0.4c2.6-1,5-2.8,5.1-4.8c0-2.2-2.5-2.6-4.8-2.6
			c-3,0-6.8,1.5-9.9,4.9c-3.8,4.2-5.8,9.2-6.1,12.8c-1.7,2-3.7,3.4-5,3.5c-0.7,0-1.3-0.4-1.3-1.1c0-0.7,0.4-2.1,1.1-3.9
			c1.7-4.2,4.1-9.5,7.1-15.7c0,0-4.5,0.8-5.2,1c-0.7,0.2-1.2,0.6-1.5,1.3c-2,4.2-4.3,9-5.7,12.5C161.2,96,160.6,98.1,160.6,99.4
			 M78,80.7c0.7,0,1,0.5,1,1.2c0,3.1-3.8,7.1-8.7,10.1C71.5,87.1,75,80.7,78,80.7 M82.5,91.4c-3,4.4-7.3,8.5-10.9,8.5
			c-1.6,0.1-2.2-0.8-2.2-2.6c0-1.1,0.3-2.6,0.5-3.4c3.5-1.8,7-3.7,10.1-7c1.8-1.9,2.9-3.8,3-5.8c0-1.8-1.1-2.8-3.4-2.8
			c-3.3,0-7.3,2.2-9.9,5c-3.4,3.7-6,9-6.1,13.7c0,3.3,1.5,6,5.8,5.8c4.5-0.1,9-3.7,11.3-6.2c-0.3,1.1-0.5,2.1-0.5,3
			c0,3,1.4,5,4.3,5.9l0.6-0.3c-0.3-0.8-0.3-1.6-0.3-2.6c0.2-2.9,1.3-6.1,3-10.4c3.2-8,7.8-17.2,9.8-22.7l-4.8,0.9
			c-0.8,0.2-1.2,0.7-1.5,1.3c-2.3,5-4.7,10.3-7.7,17.3C83.2,89.9,82.9,90.6,82.5,91.4 M43.1,83.6l0.3-0.3c-0.5-0.8-0.6-2.1-0.6-2.9
			c0.2-6.6,7.1-10.4,18-10.4h6c-3.5,2-6.4,4.8-8.7,9.9c-1,2.2-5.6,14-7.4,19.4c-2.3,6.3-3.8,9.2-5.7,10.3l0.3,0.6
			c5.2,0.3,8.3-2.4,10.3-7.3c1.9-4.7,4.4-12.1,5.7-15.4c4-10.6,5.7-15.1,8.9-17.3c4.4,0,8.7,0,8.7,0c4.8-0.1,6.8-1.3,8.3-3.2
			l-0.3-0.4c-1.2,0.7-3.8,0.8-6,0.8H59.3c-12.1,0-19.6,4-20.8,10C38,80.1,39.6,83.2,43.1,83.6 M174.6,75.1c1.4,0,2.8-1.3,3.1-2.8
			c0.3-1.6-0.6-2.8-2-2.8c-1.4,0-2.8,1.3-3.1,2.9C172.3,73.9,173.2,75.1,174.6,75.1 M226.4,121.2c0-0.8-51.3-1.4-101.8-1.4
			c-50.5,0-101.8,0.6-101.8,1.4c0,0.7,51.3,1.4,101.8,1.4C175.1,122.6,226.4,122,226.4,121.2"/>
	</g>
</g>
</svg>
